<svg width="32" height="32" viewBox="0 0 32 32" fill="none" xmlns="http://www.w3.org/2000/svg">
<path d="M16 28.4922C14.3516 28.4922 12.8047 28.1797 11.3594 27.5547C9.91406 26.9375 8.64453 26.082 7.55078 24.9883C6.45703 23.8945 5.59766 22.625 4.97266 21.1797C4.35547 19.7344 4.04688 18.1875 4.04688 16.5391C4.04688 14.8906 4.35547 13.3438 4.97266 11.8984C5.59766 10.4531 6.45703 9.18359 7.55078 8.08984C8.64453 6.98828 9.91406 6.12891 11.3594 5.51172C12.8047 4.89453 14.3516 4.58594 16 4.58594C17.6484 4.58594 19.1953 4.89453 20.6406 5.51172C22.0859 6.12891 23.3555 6.98828 24.4492 8.08984C25.543 9.18359 26.3984 10.4531 27.0156 11.8984C27.6406 13.3438 27.9531 14.8906 27.9531 16.5391C27.9531 18.1875 27.6406 19.7344 27.0156 21.1797C26.3984 22.625 25.543 23.8945 24.4492 24.9883C23.3555 26.082 22.0859 26.9375 20.6406 27.5547C19.1953 28.1797 17.6484 28.4922 16 28.4922ZM16 26.5C17.375 26.5 18.6641 26.2422 19.8672 25.7266C21.0703 25.2109 22.1289 24.4961 23.043 23.582C23.957 22.668 24.6719 21.6094 25.1875 20.4062C25.7031 19.2031 25.9609 17.9141 25.9609 16.5391C25.9609 15.1641 25.7031 13.875 25.1875 12.6719C24.6719 11.4609 23.957 10.4023 23.043 9.49609C22.1289 8.58203 21.0703 7.86719 19.8672 7.35156C18.6641 6.83594 17.375 6.57812 16 6.57812C14.625 6.57812 13.3359 6.83594 12.1328 7.35156C10.9297 7.86719 9.87109 8.58203 8.95703 9.49609C8.04297 10.4023 7.32812 11.4609 6.8125 12.6719C6.29688 13.875 6.03906 15.1641 6.03906 16.5391C6.03906 17.9141 6.29688 19.2031 6.8125 20.4062C7.32812 21.6094 8.04297 22.668 8.95703 23.582C9.87109 24.4961 10.9297 25.2109 12.1328 25.7266C13.3359 26.2422 14.625 26.5 16 26.5ZM16 21.6602C15.4922 21.6602 14.9805 21.5859 14.4648 21.4375C13.9492 21.2812 13.4961 21.043 13.1055 20.7227C12.7148 20.3945 12.4453 19.9727 12.2969 19.457C12.25 19.3008 12.2266 19.1758 12.2266 19.082C12.2266 18.8945 12.2891 18.7461 12.4141 18.6367C12.5391 18.5273 12.6875 18.4727 12.8594 18.4727C13.0156 18.4727 13.1445 18.5117 13.2461 18.5898C13.3477 18.668 13.4336 18.7969 13.5039 18.9766C13.7148 19.5391 14.0312 19.9375 14.4531 20.1719C14.8828 20.3984 15.4102 20.5117 16.0352 20.5117C16.4258 20.5117 16.8047 20.4609 17.1719 20.3594C17.5469 20.2578 17.8516 20.0859 18.0859 19.8438C18.3281 19.5938 18.4492 19.2539 18.4492 18.8242C18.4492 18.293 18.2461 17.9102 17.8398 17.6758C17.4336 17.4414 16.9688 17.2617 16.4453 17.1367L15.3203 16.8672C14.8438 16.7578 14.3828 16.6016 13.9375 16.3984C13.4922 16.1875 13.125 15.9023 12.8359 15.543C12.5547 15.1758 12.4141 14.6992 12.4141 14.1133C12.4141 13.5117 12.582 13 12.918 12.5781C13.2539 12.1484 13.6953 11.8203 14.2422 11.5938C14.7891 11.3672 15.375 11.2539 16 11.2539C16.5547 11.2539 17.1055 11.3633 17.6523 11.582C18.1992 11.8008 18.6562 12.1055 19.0234 12.4961C19.3906 12.8789 19.5742 13.3203 19.5742 13.8203C19.5742 14.0234 19.5039 14.1758 19.3633 14.2773C19.2305 14.3711 19.0898 14.418 18.9414 14.418C18.7852 14.418 18.6523 14.375 18.543 14.2891C18.4336 14.2031 18.3477 14.0703 18.2852 13.8906C18.1289 13.3984 17.8555 13.0273 17.4648 12.7773C17.0742 12.5273 16.5859 12.4023 16 12.4023C15.6406 12.4023 15.2852 12.4609 14.9336 12.5781C14.582 12.6953 14.293 12.8711 14.0664 13.1055C13.8398 13.3398 13.7266 13.6445 13.7266 14.0195C13.7266 14.3398 13.8125 14.6055 13.9844 14.8164C14.1562 15.0273 14.3828 15.1992 14.6641 15.332C14.9531 15.457 15.2695 15.5586 15.6133 15.6367L16.7383 15.9062C17.2695 16.0312 17.7617 16.2031 18.2148 16.4219C18.6758 16.6328 19.0469 16.9219 19.3281 17.2891C19.6094 17.6562 19.75 18.1328 19.75 18.7188C19.75 19.3906 19.5742 19.9453 19.2227 20.3828C18.8789 20.8125 18.4219 21.1328 17.8516 21.3438C17.2812 21.5547 16.6641 21.6602 16 21.6602ZM15.9883 23.0547C15.8789 23.0547 15.7852 23.0156 15.707 22.9375C15.6367 22.8594 15.6016 22.7695 15.6016 22.668V10.2695C15.6016 10.168 15.6367 10.0781 15.707 10C15.7852 9.92188 15.8789 9.88281 15.9883 9.88281C16.0977 9.88281 16.1875 9.92188 16.2578 10C16.3359 10.0781 16.375 10.168 16.375 10.2695V22.668C16.375 22.7695 16.3359 22.8594 16.2578 22.9375C16.1875 23.0156 16.0977 23.0547 15.9883 23.0547Z" fill="black"/>
</svg>
