<svg width="32" height="32" viewBox="0 0 32 32" fill="none" xmlns="http://www.w3.org/2000/svg">
<path d="M8.16016 9.76562C8.16016 8.75781 8.35938 7.81641 8.75781 6.94141C9.16406 6.06641 9.72266 5.30078 10.4336 4.64453C11.1523 3.98047 11.9844 3.46484 12.9297 3.09766C13.8828 2.73047 14.9062 2.54688 16 2.54688C17.0938 2.54688 18.1172 2.73047 19.0703 3.09766C20.0234 3.46484 20.8555 3.98047 21.5664 4.64453C22.2852 5.30078 22.8438 6.06641 23.2422 6.94141C23.6406 7.81641 23.8398 8.75781 23.8398 9.76562C23.8398 10.6719 23.7461 11.4727 23.5586 12.168C23.3789 12.8555 23.1445 13.5312 22.8555 14.1953C22.5664 14.8594 22.2578 15.5898 21.9297 16.3867C21.6094 17.1836 21.3125 18.1289 21.0391 19.2227C20.7656 20.3086 20.5547 21.6328 20.4062 23.1953C20.3828 23.4062 20.3086 23.5742 20.1836 23.6992C20.0664 23.8242 19.8945 23.8867 19.668 23.8867H12.332C12.1055 23.8867 11.9336 23.8242 11.8164 23.6992C11.6992 23.5742 11.6289 23.4062 11.6055 23.1953C11.457 21.6328 11.2422 20.3086 10.9609 19.2227C10.6875 18.1289 10.3906 17.1836 10.0703 16.3867C9.75 15.5898 9.44531 14.8594 9.15625 14.1953C8.86719 13.5312 8.62891 12.8555 8.44141 12.168C8.25391 11.4727 8.16016 10.6719 8.16016 9.76562ZM9.92969 9.76562C9.92969 10.4375 10.0078 11.0391 10.1641 11.5703C10.3203 12.1016 10.5234 12.6484 10.7734 13.2109C11.0312 13.7734 11.3086 14.4336 11.6055 15.1914C11.9023 15.9492 12.1914 16.8828 12.4727 17.9922C12.7617 19.1016 13.0117 20.4766 13.2227 22.1172H18.7891C19 20.4766 19.2461 19.1016 19.5273 17.9922C19.8086 16.8828 20.0977 15.9492 20.3945 15.1914C20.6914 14.4336 20.9648 13.7734 21.2148 13.2109C21.4727 12.6484 21.6797 12.1016 21.8359 11.5703C21.9922 11.0391 22.0703 10.4375 22.0703 9.76562C22.0703 8.97656 21.9102 8.25 21.5898 7.58594C21.2773 6.92187 20.8398 6.34766 20.2773 5.86328C19.7148 5.37109 19.0664 4.99219 18.332 4.72656C17.6055 4.45313 16.8281 4.31641 16 4.31641C15.1797 4.31641 14.4023 4.45313 13.668 4.72656C12.9414 4.99219 12.2969 5.37109 11.7344 5.86328C11.1719 6.34766 10.7305 6.92187 10.4102 7.58594C10.0898 8.25 9.92969 8.97656 9.92969 9.76562ZM12.2969 26.418C12.1016 26.418 11.9375 26.3516 11.8047 26.2188C11.6719 26.0859 11.6055 25.9219 11.6055 25.7266C11.6055 25.5391 11.6719 25.3789 11.8047 25.2461C11.9375 25.1133 12.1016 25.0469 12.2969 25.0469H19.7148C19.9023 25.0469 20.0625 25.1133 20.1953 25.2461C20.3281 25.3789 20.3945 25.5391 20.3945 25.7266C20.3945 25.9219 20.3281 26.0859 20.1953 26.2188C20.0625 26.3516 19.9023 26.418 19.7148 26.418H12.2969ZM16 29.8164C15.0859 29.8164 14.293 29.6094 13.6211 29.1953C12.957 28.7891 12.6055 28.25 12.5664 27.5781H19.4453C19.3906 28.25 19.0273 28.7891 18.3555 29.1953C17.6914 29.6094 16.9062 29.8164 16 29.8164Z" fill="black"/>
</svg>
