<svg width="32" height="32" viewBox="0 0 32 32" fill="none" xmlns="http://www.w3.org/2000/svg">
<path d="M5.40625 25.9375V8.48828C5.40625 7.42578 5.69141 6.62109 6.26172 6.07422C6.83984 5.52734 7.60547 5.22656 8.55859 5.17188C9.96484 5.08594 11.2969 4.96875 12.5547 4.82031C13.8125 4.66406 15.0156 4.48437 16.1641 4.28125C17.3203 4.07813 18.4453 3.85156 19.5391 3.60156C20.6641 3.33594 21.5273 3.46875 22.1289 4C22.7305 4.53125 23.0312 5.37891 23.0312 6.54297V23.6992C23.0312 24.7227 22.8555 25.4844 22.5039 25.9844C22.1523 26.4922 21.5586 26.8633 20.7227 27.0977C19.2383 27.5039 17.8398 27.8242 16.5273 28.0586C15.2148 28.3008 13.9336 28.4844 12.6836 28.6094C11.4336 28.7344 10.1523 28.832 8.83984 28.9023C7.75391 28.9648 6.91016 28.7383 6.30859 28.2227C5.70703 27.7148 5.40625 26.9531 5.40625 25.9375ZM7.29297 25.5977C7.29297 26.0742 7.4375 26.4336 7.72656 26.6758C8.01562 26.9258 8.41406 27.0391 8.92188 27.0156C10.2188 26.9531 11.4727 26.8594 12.6836 26.7344C13.8945 26.6172 15.0898 26.4531 16.2695 26.2422C17.457 26.0312 18.6641 25.7578 19.8906 25.4219C20.3438 25.3047 20.6641 25.1133 20.8516 24.8477C21.0469 24.5742 21.1445 24.168 21.1445 23.6289V6.87109C21.1445 6.34766 20.9922 5.95703 20.6875 5.69922C20.3906 5.44141 19.9727 5.375 19.4336 5.5C18.3633 5.74219 17.2617 5.96484 16.1289 6.16797C15.0039 6.37109 13.832 6.54687 12.6133 6.69531C11.4023 6.84375 10.1211 6.95312 8.76953 7.02344C8.33984 7.04688 7.98438 7.16797 7.70312 7.38672C7.42969 7.59766 7.29297 7.94922 7.29297 8.44141V25.5977ZM9.85938 11.1719C9.66406 11.1875 9.5 11.1328 9.36719 11.0078C9.24219 10.8828 9.17969 10.7266 9.17969 10.5391C9.17969 10.3594 9.23438 10.207 9.34375 10.082C9.46094 9.94922 9.63281 9.875 9.85938 9.85938C11.5234 9.75781 13.0469 9.59766 14.4297 9.37891C15.8125 9.15234 17.1562 8.89453 18.4609 8.60547C18.7188 8.55078 18.9141 8.58984 19.0469 8.72266C19.1875 8.84766 19.2578 9 19.2578 9.17969C19.2578 9.34375 19.2109 9.49219 19.1172 9.625C19.0312 9.75 18.8555 9.83984 18.5898 9.89453C17.2227 10.1992 15.8398 10.4648 14.4414 10.6914C13.0508 10.9102 11.5234 11.0703 9.85938 11.1719ZM9.85938 14.9453C9.66406 14.9531 9.5 14.8945 9.36719 14.7695C9.24219 14.6445 9.17969 14.4883 9.17969 14.3008C9.17969 14.1289 9.23438 13.9805 9.34375 13.8555C9.46094 13.7227 9.63281 13.6484 9.85938 13.6328C11.5234 13.5234 13.0469 13.3594 14.4297 13.1406C15.8125 12.9219 17.1562 12.668 18.4609 12.3789C18.7188 12.3242 18.9141 12.3633 19.0469 12.4961C19.1875 12.6211 19.2578 12.7734 19.2578 12.9531C19.2578 13.1172 19.2109 13.2617 19.1172 13.3867C19.0312 13.5117 18.8555 13.6055 18.5898 13.668C17.2227 13.9727 15.8398 14.2344 14.4414 14.4531C13.0508 14.6719 11.5234 14.8359 9.85938 14.9453ZM9.85938 18.7188C9.66406 18.7266 9.5 18.668 9.36719 18.543C9.24219 18.418 9.17969 18.2617 9.17969 18.0742C9.17969 17.9023 9.23438 17.7539 9.34375 17.6289C9.46094 17.4961 9.63281 17.4219 9.85938 17.4062C11.5234 17.2969 13.0469 17.1328 14.4297 16.9141C15.8125 16.6953 17.1562 16.4414 18.4609 16.1523C18.7188 16.0977 18.9141 16.1328 19.0469 16.2578C19.1875 16.3828 19.2578 16.5391 19.2578 16.7266C19.2578 16.8906 19.2109 17.0352 19.1172 17.1602C19.0312 17.2852 18.8555 17.3789 18.5898 17.4414C17.2227 17.7383 15.8398 18 14.4414 18.2266C13.0508 18.4453 11.5234 18.6094 9.85938 18.7188ZM9.85938 22.4805C9.66406 22.4883 9.5 22.4297 9.36719 22.3047C9.24219 22.1797 9.17969 22.0234 9.17969 21.8359C9.17969 21.6641 9.23438 21.5156 9.34375 21.3906C9.46094 21.2578 9.63281 21.1836 9.85938 21.168C10.8047 21.1133 11.6094 21.0469 12.2734 20.9688C12.9453 20.8828 13.5625 20.7969 14.125 20.7109C14.3906 20.6641 14.5898 20.707 14.7227 20.8398C14.8633 20.9727 14.9336 21.1289 14.9336 21.3086C14.9336 21.457 14.8828 21.5977 14.7812 21.7305C14.6797 21.8633 14.5312 21.9492 14.3359 21.9883C13.7031 22.0898 13.0391 22.1836 12.3438 22.2695C11.6484 22.3555 10.8203 22.4258 9.85938 22.4805ZM14.7695 29.9688C15.7539 29.8203 16.7773 29.6367 17.8398 29.418C18.9023 29.1992 20.0117 28.9375 21.168 28.6328C21.957 28.4062 22.6055 28.082 23.1133 27.6602C23.6289 27.2383 24.0117 26.6992 24.2617 26.043C24.5117 25.3945 24.6367 24.6133 24.6367 23.6992V6.54297C24.6367 6.36328 24.6289 6.19141 24.6133 6.02734C24.6055 5.86328 24.5938 5.70312 24.5781 5.54688C25.2422 5.74219 25.7422 6.12109 26.0781 6.68359C26.4219 7.23828 26.5938 7.96875 26.5938 8.875V26.3008C26.5938 27.5273 26.293 28.4453 25.6914 29.0547C25.0898 29.6641 24.1836 29.9688 22.9727 29.9688H14.7695Z" fill="black"/>
</svg>
